<svg width="20" height="20" viewBox="0 0 20 20" fill="none" xmlns="http://www.w3.org/2000/svg">
<path d="M5.7 14.3C5.88333 14.4833 6.11667 14.575 6.4 14.575C6.68333 14.575 6.91667 14.4833 7.1 14.3L10 11.4L12.925 14.325C13.1083 14.5083 13.3377 14.596 13.613 14.588C13.8883 14.58 14.1173 14.484 14.3 14.3C14.4833 14.1167 14.575 13.8833 14.575 13.6C14.575 13.3167 14.4833 13.0833 14.3 12.9L11.4 10L14.325 7.075C14.5083 6.89167 14.596 6.66233 14.588 6.387C14.58 6.11167 14.484 5.88267 14.3 5.7C14.1167 5.51667 13.8833 5.425 13.6 5.425C13.3167 5.425 13.0833 5.51667 12.9 5.7L10 8.6L7.075 5.675C6.89167 5.49167 6.66267 5.40433 6.388 5.413C6.11333 5.42167 5.884 5.51733 5.7 5.7C5.51667 5.88333 5.425 6.11667 5.425 6.4C5.425 6.68333 5.51667 6.91667 5.7 7.1L8.6 10L5.675 12.925C5.49167 13.1083 5.40433 13.3377 5.413 13.613C5.42167 13.8883 5.51733 14.1173 5.7 14.3ZM10 20C8.61667 20 7.31667 19.7373 6.1 19.212C4.88333 18.6867 3.825 17.9743 2.925 17.075C2.025 16.175 1.31267 15.1167 0.788 13.9C0.263333 12.6833 0.000666667 11.3833 0 10C0 8.61667 0.262667 7.31667 0.788 6.1C1.31333 4.88333 2.02567 3.825 2.925 2.925C3.825 2.025 4.88333 1.31267 6.1 0.788C7.31667 0.263333 8.61667 0.000666667 10 0C11.3833 0 12.6833 0.262667 13.9 0.788C15.1167 1.31333 16.175 2.02567 17.075 2.925C17.975 3.825 18.6877 4.88333 19.213 6.1C19.7383 7.31667 20.0007 8.61667 20 10C20 11.3833 19.7373 12.6833 19.212 13.9C18.6867 15.1167 17.9743 16.175 17.075 17.075C16.175 17.975 15.1167 18.6877 13.9 19.213C12.6833 19.7383 11.3833 20.0007 10 20ZM10 18C12.2167 18 14.1043 17.221 15.663 15.663C17.2217 14.105 18.0007 12.2173 18 10C18 7.78333 17.221 5.89567 15.663 4.337C14.105 2.77833 12.2173 1.99933 10 2C7.78333 2 5.89567 2.779 4.337 4.337C2.77833 5.895 1.99933 7.78267 2 10C2 12.2167 2.779 14.1043 4.337 15.663C5.895 17.2217 7.78267 18.0007 10 18Z" fill="white"/>
</svg>
