<svg width="20" height="20" viewBox="0 0 20 20" fill="none" xmlns="http://www.w3.org/2000/svg">
<path d="M10 0.25C8.07164 0.25 6.18657 0.821828 4.58319 1.89317C2.97982 2.96451 1.73013 4.48726 0.992179 6.26884C0.254225 8.05042 0.061142 10.0108 0.437348 11.9021C0.813554 13.7934 1.74215 15.5307 3.10571 16.8943C4.46928 18.2579 6.20656 19.1865 8.09787 19.5627C9.98919 19.9389 11.9496 19.7458 13.7312 19.0078C15.5127 18.2699 17.0355 17.0202 18.1068 15.4168C19.1782 13.8134 19.75 11.9284 19.75 10C19.745 7.41566 18.7162 4.93859 16.8888 3.11118C15.0614 1.28378 12.5843 0.254956 10 0.25ZM10 18.25C8.36831 18.25 6.77326 17.7661 5.41655 16.8596C4.05984 15.9531 3.00242 14.6646 2.378 13.1571C1.75358 11.6496 1.5902 9.99085 1.90853 8.3905C2.22685 6.79016 3.01259 5.32015 4.16637 4.16637C5.32016 3.01259 6.79017 2.22685 8.39051 1.90852C9.99085 1.59019 11.6497 1.75357 13.1571 2.37799C14.6646 3.00242 15.9531 4.05984 16.8596 5.41655C17.7661 6.77325 18.25 8.3683 18.25 10C18.2475 12.1873 17.3775 14.2843 15.8309 15.8309C14.2843 17.3775 12.1873 18.2475 10 18.25ZM7 10C7 10.6296 7.19812 11.2433 7.56628 11.7541C7.93444 12.2649 8.45399 12.6469 9.05132 12.8461C9.64866 13.0452 10.2935 13.0513 10.8945 12.8635C11.4955 12.6758 12.0222 12.3037 12.4 11.8C12.5208 11.6429 12.6983 11.5393 12.8945 11.5113C13.0907 11.4833 13.29 11.5331 13.45 11.65C13.6091 11.7693 13.7143 11.947 13.7425 12.1439C13.7706 12.3408 13.7194 12.5409 13.6 12.7C13.0333 13.4556 12.2433 14.0137 11.3418 14.2953C10.4402 14.5769 9.47298 14.5677 8.57698 14.2691C7.68098 13.9704 6.90166 13.3974 6.34941 12.6312C5.79717 11.865 5.5 10.9445 5.5 10C5.5 9.05553 5.79717 8.135 6.34941 7.3688C6.90166 6.60261 7.68098 6.02959 8.57698 5.73093C9.47298 5.43226 10.4402 5.42308 11.3418 5.70469C12.2433 5.9863 13.0333 6.54442 13.6 7.3C13.7194 7.45913 13.7706 7.65915 13.7425 7.85607C13.7143 8.05298 13.6091 8.23065 13.45 8.35C13.29 8.46695 13.0907 8.51672 12.8945 8.4887C12.6983 8.46067 12.5208 8.35707 12.4 8.2C12.0222 7.69628 11.4955 7.3242 10.8945 7.13646C10.2935 6.94872 9.64866 6.95484 9.05132 7.15395C8.45399 7.35306 7.93444 7.73507 7.56628 8.24587C7.19812 8.75667 7 9.37035 7 10Z" fill="#B3B3B3"/>
</svg>
